<svg xmlns="http://www.w3.org/2000/svg" xmlns:xlink="http://www.w3.org/1999/xlink" width="500" zoomAndPan="magnify" viewBox="0 0 375 374.999991" height="500" preserveAspectRatio="xMidYMid meet" version="1.0"><defs><clipPath id="e1e3590497"><path d="M 28.199219 179 L 178 179 L 178 375 L 28.199219 375 Z M 28.199219 179 " clip-rule="nonzero"/></clipPath><clipPath id="02b5da5307"><path d="M 201 179 L 351.449219 179 L 351.449219 375 L 201 375 Z M 201 179 " clip-rule="nonzero"/></clipPath><clipPath id="a39e1f1f05"><path d="M 28.199219 0 L 178 0 L 178 192 L 28.199219 192 Z M 28.199219 0 " clip-rule="nonzero"/></clipPath><clipPath id="f6f70abbdd"><path d="M 201 0 L 351.449219 0 L 351.449219 192 L 201 192 Z M 201 0 " clip-rule="nonzero"/></clipPath><clipPath id="20209160ee"><path d="M 37.5 43.273438 L 166 43.273438 L 166 162.351562 L 37.5 162.351562 Z M 37.5 43.273438 " clip-rule="nonzero"/></clipPath><clipPath id="ef72d5670d"><path d="M 101.699219 43.273438 C 66.242188 43.273438 37.5 69.929688 37.5 102.8125 C 37.5 135.695312 66.242188 162.351562 101.699219 162.351562 C 137.15625 162.351562 165.898438 135.695312 165.898438 102.8125 C 165.898438 69.929688 137.15625 43.273438 101.699219 43.273438 Z M 101.699219 43.273438 " clip-rule="nonzero"/></clipPath><clipPath id="0526cf2770"><path d="M 0.5 0.273438 L 129 0.273438 L 129 119.351562 L 0.5 119.351562 Z M 0.5 0.273438 " clip-rule="nonzero"/></clipPath><clipPath id="ea5801eb01"><path d="M 64.699219 0.273438 C 29.242188 0.273438 0.5 26.929688 0.5 59.8125 C 0.5 92.695312 29.242188 119.351562 64.699219 119.351562 C 100.15625 119.351562 128.898438 92.695312 128.898438 59.8125 C 128.898438 26.929688 100.15625 0.273438 64.699219 0.273438 Z M 64.699219 0.273438 " clip-rule="nonzero"/></clipPath><clipPath id="0d6b067a10"><rect x="0" width="129" y="0" height="120"/></clipPath><clipPath id="3b8d0a78a8"><path d="M 91.738281 16.6875 L 165.898438 16.6875 L 165.898438 172.253906 L 91.738281 172.253906 Z M 91.738281 16.6875 " clip-rule="nonzero"/></clipPath><clipPath id="5a4a63dc1a"><path d="M 165.898438 16.914062 C 125.503906 16.914062 91.738281 52.277344 91.738281 94.582031 C 91.738281 136.890625 125.503906 172.253906 165.898438 172.253906 Z M 165.898438 16.914062 " clip-rule="nonzero"/></clipPath><clipPath id="f5afe4b991"><path d="M 0.738281 0.800781 L 74.898438 0.800781 L 74.898438 156.253906 L 0.738281 156.253906 Z M 0.738281 0.800781 " clip-rule="nonzero"/></clipPath><clipPath id="49e6625565"><path d="M 74.898438 0.914062 C 34.503906 0.914062 0.738281 36.277344 0.738281 78.582031 C 0.738281 120.890625 34.503906 156.253906 74.898438 156.253906 Z M 74.898438 0.914062 " clip-rule="nonzero"/></clipPath><clipPath id="d998086825"><rect x="0" width="75" y="0" height="157"/></clipPath><clipPath id="140d15b772"><path d="M 81.425781 220 L 165.898438 220 L 165.898438 354.492188 L 81.425781 354.492188 Z M 81.425781 220 " clip-rule="nonzero"/></clipPath><clipPath id="8cd5c5d322"><path d="M 165.898438 220.0625 C 119.886719 220.0625 81.425781 250.664062 81.425781 287.277344 C 81.425781 323.886719 119.886719 354.492188 165.898438 354.492188 Z M 165.898438 220.0625 " clip-rule="nonzero"/></clipPath><clipPath id="0d5b27d9cb"><path d="M 0.425781 0 L 84.898438 0 L 84.898438 134.492188 L 0.425781 134.492188 Z M 0.425781 0 " clip-rule="nonzero"/></clipPath><clipPath id="60fb09b25a"><path d="M 84.898438 0.0625 C 38.886719 0.0625 0.425781 30.664062 0.425781 67.277344 C 0.425781 103.886719 38.886719 134.492188 84.898438 134.492188 Z M 84.898438 0.0625 " clip-rule="nonzero"/></clipPath><clipPath id="577915192d"><rect x="0" width="85" y="0" height="135"/></clipPath><clipPath id="ad0ca182c3"><path d="M 40 196 L 139 196 L 139 309 L 40 309 Z M 40 196 " clip-rule="nonzero"/></clipPath><clipPath id="98a6b38e09"><path d="M 140.734375 199.507812 L 136.6875 312.042969 L 40.335938 308.578125 L 44.382812 196.042969 Z M 140.734375 199.507812 " clip-rule="nonzero"/></clipPath><clipPath id="314d43c9fa"><path d="M 40.339844 308.46875 C 92.820312 310.359375 137.613281 286.339844 138.710938 255.722656 C 139.8125 225.101562 96.863281 197.929688 44.382812 196.042969 Z M 40.339844 308.46875 " clip-rule="nonzero"/></clipPath><clipPath id="02bdefb327"><path d="M 0.320312 0 L 99 0 L 99 113 L 0.320312 113 Z M 0.320312 0 " clip-rule="nonzero"/></clipPath><clipPath id="fa1c6327a2"><path d="M 100.734375 3.507812 L 96.6875 116.042969 L 0.335938 112.578125 L 4.382812 0.0429688 Z M 100.734375 3.507812 " clip-rule="nonzero"/></clipPath><clipPath id="ad0f443991"><path d="M 0.339844 112.46875 C 52.820312 114.359375 97.613281 90.339844 98.710938 59.722656 C 99.8125 29.101562 56.863281 1.929688 4.382812 0.0429688 Z M 0.339844 112.46875 " clip-rule="nonzero"/></clipPath><clipPath id="3e4b7d8962"><rect x="0" width="99" y="0" height="113"/></clipPath><clipPath id="3ab63cd763"><path d="M 40.339844 272.703125 L 140.824219 272.703125 L 140.824219 337.5 L 40.339844 337.5 Z M 40.339844 272.703125 " clip-rule="nonzero"/></clipPath><clipPath id="ba672bbf97"><path d="M 90.539062 272.703125 C 62.816406 272.703125 40.339844 287.210938 40.339844 305.101562 C 40.339844 322.996094 62.816406 337.5 90.539062 337.5 C 118.261719 337.5 140.734375 322.996094 140.734375 305.101562 C 140.734375 287.210938 118.261719 272.703125 90.539062 272.703125 Z M 90.539062 272.703125 " clip-rule="nonzero"/></clipPath><clipPath id="3c70dc6895"><path d="M 0.339844 0.703125 L 100.824219 0.703125 L 100.824219 65.5 L 0.339844 65.5 Z M 0.339844 0.703125 " clip-rule="nonzero"/></clipPath><clipPath id="1efd36fa76"><path d="M 50.539062 0.703125 C 22.816406 0.703125 0.339844 15.210938 0.339844 33.101562 C 0.339844 50.996094 22.816406 65.5 50.539062 65.5 C 78.261719 65.5 100.734375 50.996094 100.734375 33.101562 C 100.734375 15.210938 78.261719 0.703125 50.539062 0.703125 Z M 50.539062 0.703125 " clip-rule="nonzero"/></clipPath><clipPath id="9623da7599"><rect x="0" width="101" y="0" height="66"/></clipPath><clipPath id="ca85bce341"><path d="M 210.800781 51.003906 L 344.332031 51.003906 L 344.332031 162.351562 L 210.800781 162.351562 Z M 210.800781 51.003906 " clip-rule="nonzero"/></clipPath><clipPath id="c45941e09e"><path d="M 277.441406 51.003906 C 240.636719 51.003906 210.800781 75.929688 210.800781 106.675781 C 210.800781 137.425781 240.636719 162.351562 277.441406 162.351562 C 314.242188 162.351562 344.078125 137.425781 344.078125 106.675781 C 344.078125 75.929688 314.242188 51.003906 277.441406 51.003906 Z M 277.441406 51.003906 " clip-rule="nonzero"/></clipPath><clipPath id="1b7cd4c734"><path d="M 0.800781 0.00390625 L 134 0.00390625 L 134 111.351562 L 0.800781 111.351562 Z M 0.800781 0.00390625 " clip-rule="nonzero"/></clipPath><clipPath id="63ad739aa8"><path d="M 67.441406 0.00390625 C 30.636719 0.00390625 0.800781 24.929688 0.800781 55.675781 C 0.800781 86.425781 30.636719 111.351562 67.441406 111.351562 C 104.242188 111.351562 134.078125 86.425781 134.078125 55.675781 C 134.078125 24.929688 104.242188 0.00390625 67.441406 0.00390625 Z M 67.441406 0.00390625 " clip-rule="nonzero"/></clipPath><clipPath id="cacadb3758"><rect x="0" width="135" y="0" height="112"/></clipPath><clipPath id="448bf540d2"><path d="M 210.792969 16.917969 L 288.839844 16.917969 L 288.839844 172.398438 L 210.792969 172.398438 Z M 210.792969 16.917969 " clip-rule="nonzero"/></clipPath><clipPath id="921ba9558d"><path d="M 210.792969 172.253906 C 253.304688 172.253906 288.839844 136.890625 288.839844 94.585938 C 288.839844 52.28125 253.304688 16.917969 210.792969 16.917969 Z M 210.792969 172.253906 " clip-rule="nonzero"/></clipPath><clipPath id="941778a064"><path d="M 0.792969 0.917969 L 78.839844 0.917969 L 78.839844 156.320312 L 0.792969 156.320312 Z M 0.792969 0.917969 " clip-rule="nonzero"/></clipPath><clipPath id="13d3619755"><path d="M 0.792969 156.253906 C 43.304688 156.253906 78.839844 120.890625 78.839844 78.585938 C 78.839844 36.28125 43.304688 0.917969 0.792969 0.917969 Z M 0.792969 156.253906 " clip-rule="nonzero"/></clipPath><clipPath id="79d72c7d0c"><rect x="0" width="79" y="0" height="157"/></clipPath><clipPath id="d7689cff0f"><path d="M 265.890625 187.289062 L 333.449219 187.289062 L 333.449219 329 L 265.890625 329 Z M 265.890625 187.289062 " clip-rule="nonzero"/></clipPath><clipPath id="fe22adec5c"><path d="M 333.449219 187.492188 C 296.652344 187.492188 265.890625 219.707031 265.890625 258.246094 C 265.890625 296.785156 296.652344 329 333.449219 329 Z M 333.449219 187.492188 " clip-rule="nonzero"/></clipPath><clipPath id="dea7655ee1"><path d="M 0.890625 0.441406 L 68.449219 0.441406 L 68.449219 142 L 0.890625 142 Z M 0.890625 0.441406 " clip-rule="nonzero"/></clipPath><clipPath id="87815b9ccf"><path d="M 68.449219 0.492188 C 31.652344 0.492188 0.890625 32.707031 0.890625 71.246094 C 0.890625 109.785156 31.652344 142 68.449219 142 Z M 68.449219 0.492188 " clip-rule="nonzero"/></clipPath><clipPath id="ec9bce5838"><rect x="0" width="69" y="0" height="142"/></clipPath><clipPath id="232cc88074"><path d="M 209.101562 209.925781 L 337.949219 209.925781 L 337.949219 329.003906 L 209.101562 329.003906 Z M 209.101562 209.925781 " clip-rule="nonzero"/></clipPath><clipPath id="b60c28514b"><path d="M 273.300781 209.925781 C 237.84375 209.925781 209.101562 236.582031 209.101562 269.464844 C 209.101562 302.347656 237.84375 329.003906 273.300781 329.003906 C 308.757812 329.003906 337.5 302.347656 337.5 269.464844 C 337.5 236.582031 308.757812 209.925781 273.300781 209.925781 Z M 273.300781 209.925781 " clip-rule="nonzero"/></clipPath><clipPath id="313e171e07"><path d="M 0.101562 0.925781 L 128.679688 0.925781 L 128.679688 120.003906 L 0.101562 120.003906 Z M 0.101562 0.925781 " clip-rule="nonzero"/></clipPath><clipPath id="81169ce29f"><path d="M 64.300781 0.925781 C 28.84375 0.925781 0.101562 27.582031 0.101562 60.464844 C 0.101562 93.347656 28.84375 120.003906 64.300781 120.003906 C 99.757812 120.003906 128.5 93.347656 128.5 60.464844 C 128.5 27.582031 99.757812 0.925781 64.300781 0.925781 Z M 64.300781 0.925781 " clip-rule="nonzero"/></clipPath><clipPath id="02c8de77d5"><rect x="0" width="129" y="0" height="121"/></clipPath><clipPath id="5de611a0ff"><path d="M 205 272 L 334 272 L 334 355 L 205 355 Z M 205 272 " clip-rule="nonzero"/></clipPath><clipPath id="64f4547537"><path d="M 205.472656 309.070312 L 318.851562 272.703125 L 333.421875 318.128906 L 220.042969 354.496094 Z M 205.472656 309.070312 " clip-rule="nonzero"/></clipPath><clipPath id="3c9649ef7d"><path d="M 0.441406 0.640625 L 128.601562 0.640625 L 128.601562 82.71875 L 0.441406 82.71875 Z M 0.441406 0.640625 " clip-rule="nonzero"/></clipPath><clipPath id="77e3177a0b"><path d="M 0.472656 37.070312 L 113.851562 0.703125 L 128.421875 46.128906 L 15.042969 82.496094 Z M 0.472656 37.070312 " clip-rule="nonzero"/></clipPath><clipPath id="3aad9cd9a2"><rect x="0" width="129" y="0" height="83"/></clipPath></defs><g clip-path="url(#e1e3590497)"><path fill="#c1ff72" d="M 48.292969 316.730469 L 157.410156 351.445312 L 157.96875 238.238281 L 48.847656 203.519531 Z M 167.304688 375.007812 C 166.289062 375.007812 165.273438 374.851562 164.28125 374.535156 L 35.277344 333.492188 C 31.125 332.171875 28.316406 328.304688 28.335938 323.953125 L 28.996094 189.867188 C 29.011719 186.703125 30.535156 183.730469 33.097656 181.867188 C 35.660156 180.003906 38.957031 179.46875 41.976562 180.429688 L 170.984375 221.472656 C 175.132812 222.796875 177.945312 226.660156 177.921875 231.015625 L 177.261719 365.09375 C 177.246094 368.261719 175.722656 371.238281 173.160156 373.097656 C 171.4375 374.355469 169.382812 375.007812 167.304688 375.007812 " fill-opacity="1" fill-rule="nonzero"/></g><g clip-path="url(#02b5da5307)"><path fill="#545454" d="M 221.949219 238.238281 L 222.507812 351.445312 L 331.625 316.730469 L 331.066406 203.519531 Z M 212.617188 375.007812 C 210.535156 375.007812 208.476562 374.355469 206.753906 373.097656 C 204.191406 371.238281 202.667969 368.261719 202.65625 365.09375 L 201.992188 231.015625 C 201.972656 226.660156 204.785156 222.796875 208.933594 221.472656 L 337.941406 180.429688 C 340.957031 179.46875 344.257812 180.003906 346.820312 181.867188 C 349.382812 183.730469 350.90625 186.703125 350.917969 189.867188 L 351.578125 323.953125 C 351.601562 328.304688 348.789062 332.171875 344.636719 333.492188 L 215.632812 374.535156 C 214.640625 374.851562 213.625 375.007812 212.617188 375.007812 " fill-opacity="1" fill-rule="nonzero"/></g><g clip-path="url(#a39e1f1f05)"><path fill="#545454" d="M 48.328125 132.867188 L 157.394531 167.566406 L 157.941406 26.640625 L 48.851562 81.464844 Z M 167.304688 191.128906 C 166.289062 191.128906 165.273438 190.972656 164.28125 190.660156 L 35.277344 149.613281 C 31.109375 148.289062 28.292969 144.398438 28.335938 140.023438 L 28.996094 75.191406 C 29.035156 71.460938 31.152344 68.066406 34.480469 66.390625 L 163.488281 1.558594 C 166.585938 0.00390625 170.261719 0.164062 173.207031 1.992188 C 176.148438 3.8125 177.933594 7.03125 177.921875 10.496094 L 177.261719 181.207031 C 177.25 184.378906 175.726562 187.351562 173.164062 189.21875 C 171.441406 190.472656 169.382812 191.128906 167.304688 191.128906 " fill-opacity="1" fill-rule="nonzero"/></g><g clip-path="url(#f6f70abbdd)"><path fill="#545454" d="M 221.976562 26.640625 L 222.519531 167.566406 L 331.585938 132.867188 L 331.0625 81.464844 Z M 212.617188 191.128906 C 210.53125 191.128906 208.472656 190.472656 206.75 189.21875 C 204.1875 187.351562 202.664062 184.378906 202.65625 181.207031 L 201.992188 10.496094 C 201.980469 7.03125 203.769531 3.8125 206.710938 1.992188 C 209.65625 0.164062 213.332031 0.00390625 216.425781 1.558594 L 345.433594 66.390625 C 348.765625 68.066406 350.882812 71.460938 350.917969 75.191406 L 351.578125 140.023438 C 351.625 144.398438 348.808594 148.289062 344.636719 149.613281 L 215.632812 190.660156 C 214.640625 190.972656 213.625 191.128906 212.617188 191.128906 " fill-opacity="1" fill-rule="nonzero"/></g><g clip-path="url(#20209160ee)"><g clip-path="url(#ef72d5670d)"><g transform="matrix(1, 0, 0, 1, 37, 43)"><g clip-path="url(#0d6b067a10)"><g clip-path="url(#0526cf2770)"><g clip-path="url(#ea5801eb01)"><path fill="#545454" d="M 0.5 0.273438 L 128.882812 0.273438 L 128.882812 119.351562 L 0.5 119.351562 Z M 0.5 0.273438 " fill-opacity="1" fill-rule="nonzero"/></g></g></g></g></g></g><g clip-path="url(#3b8d0a78a8)"><g clip-path="url(#5a4a63dc1a)"><g transform="matrix(1, 0, 0, 1, 91, 16)"><g clip-path="url(#d998086825)"><g clip-path="url(#f5afe4b991)"><g clip-path="url(#49e6625565)"><path fill="#545454" d="M 0.738281 156.253906 L 0.738281 0.976562 L 74.898438 0.976562 L 74.898438 156.253906 Z M 0.738281 156.253906 " fill-opacity="1" fill-rule="nonzero"/></g></g></g></g></g></g><g clip-path="url(#140d15b772)"><g clip-path="url(#8cd5c5d322)"><g transform="matrix(1, 0, 0, 1, 81, 220)"><g clip-path="url(#577915192d)"><g clip-path="url(#0d5b27d9cb)"><g clip-path="url(#60fb09b25a)"><path fill="#c1ff72" d="M 0.425781 134.492188 L 0.425781 0.195312 L 84.898438 0.195312 L 84.898438 134.492188 Z M 0.425781 134.492188 " fill-opacity="1" fill-rule="nonzero"/></g></g></g></g></g></g><g clip-path="url(#ad0ca182c3)"><g clip-path="url(#98a6b38e09)"><g clip-path="url(#314d43c9fa)"><g transform="matrix(1, 0, 0, 1, 40, 196)"><g clip-path="url(#3e4b7d8962)"><g clip-path="url(#02bdefb327)"><g clip-path="url(#fa1c6327a2)"><g clip-path="url(#ad0f443991)"><path fill="#c1ff72" d="M 100.734375 3.507812 L 96.6875 116.042969 L 0.335938 112.578125 L 4.382812 0.0429688 Z M 100.734375 3.507812 " fill-opacity="1" fill-rule="nonzero"/></g></g></g></g></g></g></g></g><g clip-path="url(#3ab63cd763)"><g clip-path="url(#ba672bbf97)"><g transform="matrix(1, 0, 0, 1, 40, 272)"><g clip-path="url(#9623da7599)"><g clip-path="url(#3c70dc6895)"><g clip-path="url(#1efd36fa76)"><path fill="#c1ff72" d="M 0.339844 0.703125 L 100.824219 0.703125 L 100.824219 65.5 L 0.339844 65.5 Z M 0.339844 0.703125 " fill-opacity="1" fill-rule="nonzero"/></g></g></g></g></g></g><g clip-path="url(#ca85bce341)"><g clip-path="url(#c45941e09e)"><g transform="matrix(1, 0, 0, 1, 210, 51)"><g clip-path="url(#cacadb3758)"><g clip-path="url(#1b7cd4c734)"><g clip-path="url(#63ad739aa8)"><path fill="#545454" d="M 0.800781 0.00390625 L 133.898438 0.00390625 L 133.898438 111.351562 L 0.800781 111.351562 Z M 0.800781 0.00390625 " fill-opacity="1" fill-rule="nonzero"/></g></g></g></g></g></g><g clip-path="url(#448bf540d2)"><g clip-path="url(#921ba9558d)"><g transform="matrix(1, 0, 0, 1, 210, 16)"><g clip-path="url(#79d72c7d0c)"><g clip-path="url(#941778a064)"><g clip-path="url(#13d3619755)"><path fill="#545454" d="M 78.839844 0.917969 L 78.839844 156.398438 L 0.792969 156.398438 L 0.792969 0.917969 Z M 78.839844 0.917969 " fill-opacity="1" fill-rule="nonzero"/></g></g></g></g></g></g><g clip-path="url(#d7689cff0f)"><g clip-path="url(#fe22adec5c)"><g transform="matrix(1, 0, 0, 1, 265, 187)"><g clip-path="url(#ec9bce5838)"><g clip-path="url(#dea7655ee1)"><g clip-path="url(#87815b9ccf)"><path fill="#545454" d="M 0.890625 142 L 0.890625 0.550781 L 68.449219 0.550781 L 68.449219 142 Z M 0.890625 142 " fill-opacity="1" fill-rule="nonzero"/></g></g></g></g></g></g><g clip-path="url(#232cc88074)"><g clip-path="url(#b60c28514b)"><g transform="matrix(1, 0, 0, 1, 209, 209)"><g clip-path="url(#02c8de77d5)"><g clip-path="url(#313e171e07)"><g clip-path="url(#81169ce29f)"><path fill="#545454" d="M 0.101562 0.925781 L 128.484375 0.925781 L 128.484375 120.003906 L 0.101562 120.003906 Z M 0.101562 0.925781 " fill-opacity="1" fill-rule="nonzero"/></g></g></g></g></g></g><g clip-path="url(#5de611a0ff)"><g clip-path="url(#64f4547537)"><g transform="matrix(1, 0, 0, 1, 205, 272)"><g clip-path="url(#3aad9cd9a2)"><g clip-path="url(#3c9649ef7d)"><g clip-path="url(#77e3177a0b)"><path fill="#545454" d="M 0.472656 37.070312 L 113.859375 0.699219 L 128.429688 46.125 L 15.042969 82.496094 Z M 0.472656 37.070312 " fill-opacity="1" fill-rule="nonzero"/></g></g></g></g></g></g></svg>